<svg width="46" height="32" viewBox="0 0 46 32" fill="none" xmlns="http://www.w3.org/2000/svg">
<g clip-path="url(#clip0_1_3)">
<path d="M10.09 23.7333C10.0391 23.7594 9.98992 23.7886 9.94265 23.8207C9.06065 24.5287 7.44332 24.4093 6.61332 23.3227C6.10999 22.6633 5.93865 21.9227 6.02599 21.1033C6.11732 20.2467 6.49265 19.5607 7.20465 19.0667C7.95865 18.5453 9.22265 18.5047 9.96398 19.1333C10.0039 19.1602 10.0453 19.1849 10.088 19.2073C10.1007 19.1242 10.1074 19.0402 10.108 18.956C10.0993 18.8227 10.158 18.7813 10.286 18.7833C10.686 18.7887 11.0927 18.7927 11.4953 18.7833C11.6673 18.7787 11.7233 18.8307 11.722 19.0067C11.716 20.3607 11.7187 21.7153 11.7187 23.07C11.7187 23.3533 11.7106 23.6373 11.722 23.92C11.7286 24.0907 11.6753 24.156 11.4987 24.1507C11.1147 24.14 10.7304 24.14 10.346 24.1507C10.1687 24.156 10.084 24.1067 10.108 23.9187C10.1084 23.8564 10.1023 23.7943 10.09 23.7333ZM8.91865 22.7633C9.51865 22.8133 10.174 22.3573 10.1693 21.4433C10.166 20.6853 9.66665 20.1627 8.95398 20.1607C8.21598 20.1607 7.68732 20.694 7.67932 21.4567C7.66665 22.2 8.19998 22.7627 8.91865 22.7633Z" fill="#F26922"/>
<path d="M33.1273 22.2033H44.652C44.6259 22.2454 44.5974 22.2859 44.5667 22.3247C44.0907 22.85 43.488 23.0833 42.7893 23.1113C41.9847 23.1433 41.1807 23.1867 40.3767 23.2267C40.1367 23.2387 39.9707 23.36 39.8433 23.5667C39.218 24.5933 38.5813 25.6133 37.9613 26.644C37.8033 26.9067 37.61 27.0233 37.3007 27.01C36.85 26.99 36.3973 27.0047 35.9127 27.0047C36.4093 25.7527 36.8953 24.5287 37.394 23.2713C37.1467 23.2213 36.9227 23.1727 36.6973 23.1307C36.1053 23.02 35.5133 22.904 34.9187 22.81C34.8589 22.8035 34.7984 22.8095 34.741 22.8275C34.6837 22.8455 34.6307 22.8752 34.5853 22.9147C34.4146 23.09 34.2635 23.2833 34.1347 23.4913C33.8413 23.958 33.3047 24.146 32.764 23.94C32.8647 23.574 32.952 23.2027 33.0713 22.8413C33.1833 22.5167 33.2 22.5213 33.1273 22.2033Z" fill="#F26922"/>
<path d="M28.9487 16.772L28.0787 17.6053C27.8987 17.5533 27.7007 17.456 27.498 17.446C26.9387 17.4167 26.642 17.7067 26.6167 18.2646C26.61 18.4153 26.6167 18.5673 26.6167 18.718C26.6107 18.858 26.6713 18.906 26.808 18.904C27.186 18.8987 27.564 18.912 27.9413 18.898C28.1307 18.8913 28.1807 18.9593 28.1707 19.1367C28.158 19.3813 28.1593 19.628 28.1707 19.8733C28.178 20.0347 28.1313 20.0967 27.96 20.0907C27.6013 20.0787 27.242 20.0867 26.8827 20.0873C26.616 20.0873 26.616 20.0873 26.616 20.3467V23.824C26.616 24.0907 26.616 24.0907 26.3493 24.0907C26.0467 24.0907 25.744 24.0833 25.442 24.0907C25.2847 24.096 25.238 24.0447 25.242 23.8907C25.2473 22.7 25.242 21.5093 25.2487 20.3193C25.2487 20.1413 25.2067 20.072 25.0193 20.082C24.7433 20.0967 24.4653 20.082 24.188 20.0873C24.0747 20.0873 24.0307 20.0487 24.0327 19.9333C24.038 19.6433 24.0393 19.3533 24.0327 19.0667C24.0327 18.9427 24.0753 18.8993 24.1973 18.902C24.4807 18.908 24.7647 18.896 25.0473 18.9067C25.208 18.912 25.2427 18.8493 25.2473 18.698C25.2647 18.348 25.2653 17.9887 25.3493 17.6527C25.558 16.818 26.322 16.234 27.1807 16.186C27.788 16.15 28.3453 16.2573 28.8133 16.6767C28.8568 16.7107 28.902 16.7425 28.9487 16.772Z" fill="#F26922"/>
<path d="M17.408 20.1167C17.408 18.8567 17.4113 17.596 17.404 16.336C17.404 16.1567 17.4507 16.0953 17.636 16.1013C18.0453 16.1147 18.4547 16.1093 18.8647 16.1013C18.998 16.1013 19.0527 16.138 19.0527 16.2827C19.0495 18.84 19.0495 21.3978 19.0527 23.956C19.0527 24.1113 18.9913 24.1493 18.8527 24.1473C18.4493 24.142 18.046 24.138 17.6433 24.1473C17.4627 24.1527 17.4053 24.0967 17.406 23.9127C17.4113 22.6493 17.408 21.3827 17.408 20.1167Z" fill="#F26922"/>
<path d="M14.1867 19.1813C14.4953 18.9087 14.8153 18.74 15.1867 18.6973C15.6893 18.64 16.18 18.65 16.608 18.9827C16.7247 19.0733 16.7507 19.1413 16.644 19.2687C16.35 19.6207 16.0713 19.9853 15.7773 20.3553C15.6559 20.2566 15.5139 20.1863 15.3617 20.1495C15.2096 20.1127 15.0512 20.1104 14.898 20.1427C14.4313 20.2407 14.1693 20.578 14.1647 21.084C14.1607 22.0227 14.1647 22.9607 14.1647 23.8993C14.1647 24.146 14.1647 24.1467 13.9113 24.1467C13.5113 24.1467 13.1053 24.1427 12.702 24.1467C12.5547 24.1467 12.4907 24.1127 12.4913 23.9467C12.4971 22.2898 12.4971 20.6331 12.4913 18.9767C12.4913 18.8273 12.5353 18.7767 12.684 18.7813C13.0933 18.7893 13.5033 18.7927 13.9127 18.7813C14.1047 18.7753 14.2007 18.8227 14.1653 19.03C14.1672 19.0811 14.1743 19.1318 14.1867 19.1813Z" fill="#F26922"/>
<path d="M31.3013 20.0807C31.3013 21.3211 31.3013 22.5618 31.3013 23.8027C31.3013 24.0567 31.3013 24.0567 31.0407 24.0567C30.7127 24.0567 30.3853 24.0513 30.058 24.0567C29.9247 24.0567 29.8853 24.0087 29.886 23.88C29.8887 21.3467 29.8887 18.8147 29.886 16.284C29.886 16.14 29.936 16.1 30.0733 16.1033C30.4133 16.1113 30.754 16.1147 31.094 16.1033C31.2633 16.0973 31.3067 16.1553 31.3053 16.3187C31.2987 17.5733 31.3013 18.8273 31.3013 20.0807Z" fill="#F26922"/>
<path d="M23.312 18.7867L21.7213 20.8373C21.636 20.9467 21.558 21.0627 21.4647 21.164C21.3713 21.2653 21.3767 21.346 21.4593 21.4587C22.07 22.284 22.6733 23.1146 23.2787 23.944C23.3153 23.9933 23.3453 24.046 23.4 24.1233C23.3398 24.1343 23.2791 24.1418 23.218 24.146C22.6947 24.146 22.172 24.146 21.6487 24.146C21.5956 24.1505 21.5423 24.1397 21.4951 24.1151C21.4479 24.0904 21.4086 24.0528 21.382 24.0066C20.8176 23.1622 20.25 22.3218 19.6793 21.4853C19.6127 21.3893 19.624 21.3267 19.6893 21.2367C20.254 20.4633 20.8113 19.6847 21.3767 18.912C21.4211 18.8477 21.4892 18.8036 21.566 18.7893C22.1333 18.7827 22.7013 18.7867 23.312 18.7867Z" fill="#F26922"/>
<path d="M40.5333 20.948C40.5006 20.955 40.4674 20.9599 40.434 20.9627C39.7533 20.9627 39.0727 20.9627 38.3927 20.9727C38.0847 20.978 37.8993 20.8487 37.7873 20.5673C37.3667 19.51 36.9387 18.456 36.5147 17.4C36.5019 17.3604 36.4912 17.3201 36.4827 17.2793H36.828C37.2373 17.2793 37.6473 17.2693 38.056 17.2873C38.164 17.292 38.3133 17.354 38.3673 17.4407C39.088 18.5787 39.7953 19.7247 40.506 20.87C40.5174 20.8951 40.5266 20.9212 40.5333 20.948Z" fill="#F26922"/>
<path d="M43.1013 17.236L41.9253 19.1027C41.8884 19.0645 41.8542 19.024 41.8227 18.9813C41.6067 18.6347 41.39 18.2887 41.1793 17.9387C41.042 17.7107 41.246 17.252 41.508 17.2413C42.0213 17.2213 42.5367 17.236 43.1013 17.236Z" fill="#F26922"/>
<path d="M32.7927 20.302C33.0453 20.302 33.2927 20.2733 33.526 20.3127C33.6853 20.3433 33.8299 20.4258 33.9373 20.5473C34.182 20.8387 34.3927 21.1593 34.63 21.486L33.8113 21.7527C33.662 21.8013 33.5127 21.8493 33.364 21.8987C33.274 21.9293 33.2087 21.9213 33.178 21.8127C33.0447 21.336 32.9053 20.86 32.7693 20.3833C32.768 20.3667 32.7807 20.3467 32.7927 20.302Z" fill="#F26922"/>
<path d="M2.40933 10.3813C2.40933 10.3933 2.39733 10.4127 2.38933 10.414C2.38195 10.4143 2.37461 10.4129 2.36782 10.41C2.36103 10.4071 2.35494 10.4028 2.35 10.3973C2.33413 10.3779 2.32226 10.3555 2.31505 10.3315C2.30784 10.3075 2.30544 10.2823 2.308 10.2573C2.30835 10.25 2.31047 10.2428 2.31418 10.2364C2.3179 10.23 2.32309 10.2246 2.32933 10.2207C2.33933 10.2167 2.356 10.228 2.364 10.2307C2.39806 10.2731 2.41431 10.3271 2.40933 10.3813Z" fill="#F26922"/>
<path d="M2.83267 10.75C2.76138 10.7034 2.6998 10.6434 2.65134 10.5733C2.72189 10.6209 2.78331 10.6807 2.83267 10.75Z" fill="#F26922"/>
<path d="M3.15734 11.0953C3.12955 11.0999 3.10108 11.0982 3.07406 11.0902C3.04705 11.0822 3.02219 11.0683 3.00134 11.0493C2.976 11.0273 2.98334 11.0013 3.016 10.9953C3.04267 10.9913 3.06988 10.9928 3.09593 10.9998C3.12197 11.0068 3.14629 11.0191 3.16734 11.036C3.196 11.0667 3.19067 11.0893 3.15734 11.0953Z" fill="#F26922"/>
<path d="M3.58265 10.538C3.52799 10.5927 3.47599 10.6467 3.42199 10.698C3.36799 10.7493 3.30199 10.81 3.23932 10.864C3.22704 10.8737 3.21159 10.8784 3.19599 10.8773C3.09395 10.8632 2.998 10.8205 2.91932 10.754C2.79641 10.6595 2.68949 10.5458 2.60265 10.4173C2.56005 10.3538 2.53373 10.2808 2.52599 10.2047C2.52429 10.1933 2.52665 10.1818 2.53265 10.172C2.63865 10.0553 2.74532 9.93999 2.85199 9.82466C2.85199 9.82466 2.85799 9.82133 2.86399 9.81799C2.95586 9.96402 3.06241 10.1003 3.18199 10.2247C3.30446 10.3425 3.43872 10.4475 3.58265 10.538Z" fill="#F26922"/>
<path d="M3.79999 8.65866C3.73332 8.74333 3.66665 8.82732 3.59999 8.91199C3.31852 9.2777 2.99167 9.60611 2.62732 9.88933L2.68065 9.81199C2.69732 9.78799 2.71265 9.76399 2.73065 9.74199C2.79732 9.66466 2.85465 9.58532 2.92265 9.51199C3.19465 9.21666 3.48665 8.94066 3.77865 8.66533C3.78331 8.66097 3.78845 8.65717 3.79399 8.65399L3.79999 8.65866Z" fill="#F26922"/>
<path d="M4.46132 8.22466C4.4329 8.23687 4.40203 8.24233 4.37114 8.24059C4.34026 8.23886 4.31019 8.22998 4.28332 8.21466C4.26665 8.19999 4.26465 8.18533 4.27599 8.17533C4.30584 8.15916 4.33943 8.15115 4.37337 8.15208C4.4073 8.15302 4.4404 8.16287 4.46932 8.18066C4.48532 8.19999 4.47932 8.21266 4.46132 8.22466Z" fill="#F26922"/>
<path d="M4.75668 9.61666C4.69001 9.67933 4.62868 9.74066 4.56735 9.80599C4.31601 10.0727 4.05735 10.3327 3.78401 10.5787C3.70066 10.6473 3.61365 10.7114 3.52335 10.7707C3.87157 10.3243 4.28406 9.93203 4.74734 9.60666L4.75668 9.61666Z" fill="#F26922"/>
<path d="M4.84135 9.30268H4.78135L4.76468 9.52268C4.65468 9.60468 4.54335 9.68601 4.43135 9.76868C4.24486 9.43236 3.96767 9.15517 3.63135 8.96868C3.66801 8.91935 3.70401 8.86868 3.74068 8.81801C3.79535 8.74401 3.85001 8.67068 3.90335 8.59601C3.91082 8.58409 3.92111 8.5742 3.93333 8.56722C3.94554 8.56025 3.95929 8.55639 3.97335 8.55601C4.08252 8.5477 4.19216 8.56427 4.294 8.60445C4.39585 8.64464 4.48726 8.7074 4.56135 8.78801C4.64403 8.86386 4.71423 8.95228 4.76935 9.05001C4.81002 9.12856 4.8345 9.21449 4.84135 9.30268Z" fill="#F26922"/>
<path d="M5.23735 9.11666C5.22468 9.13666 5.20868 9.14066 5.19468 9.12666C5.17731 9.09932 5.16683 9.06816 5.16416 9.03588C5.16149 9.0036 5.1667 8.97115 5.17935 8.94132C5.19535 8.91999 5.21268 8.91999 5.22868 8.94132C5.24299 8.96809 5.2512 8.9977 5.2527 9.02802C5.25419 9.05834 5.24895 9.08861 5.23735 9.11666Z" fill="#F26922"/>
<path d="M2.29199 18.3507C2.32655 18.3931 2.34285 18.4475 2.33733 18.502C2.33733 18.514 2.32533 18.5333 2.31733 18.5347C2.31 18.5348 2.30275 18.5333 2.29607 18.5303C2.28938 18.5273 2.28344 18.5229 2.27866 18.5173C2.26248 18.4981 2.25036 18.4757 2.24303 18.4517C2.2357 18.4276 2.23331 18.4023 2.23599 18.3773C2.23677 18.3701 2.23907 18.363 2.24275 18.3567C2.24643 18.3504 2.25139 18.3449 2.25733 18.3407C2.26666 18.3367 2.28399 18.348 2.29199 18.3507Z" fill="#F26922"/>
<path d="M2.76065 18.8707C2.68957 18.824 2.62822 18.764 2.57999 18.694C2.65018 18.7417 2.71135 18.8016 2.76065 18.8707Z" fill="#F26922"/>
<path d="M3.09533 19.156C3.124 19.186 3.11866 19.21 3.08533 19.2153C3.0577 19.22 3.02937 19.2183 3.00248 19.2105C2.97558 19.2026 2.9508 19.1888 2.93 19.17C2.904 19.148 2.91133 19.122 2.944 19.116C2.97062 19.1122 2.99774 19.1137 3.02374 19.1206C3.04974 19.1275 3.07409 19.1395 3.09533 19.156Z" fill="#F26922"/>
<path d="M3.51132 18.658C3.45599 18.7127 3.40399 18.7673 3.35066 18.818C3.29732 18.8687 3.22999 18.93 3.16799 18.9847C3.15528 18.994 3.13969 18.9985 3.12399 18.9973C3.02208 18.9832 2.9262 18.9407 2.84732 18.8747C2.7251 18.7805 2.61807 18.6681 2.52999 18.5413C2.48833 18.4774 2.4623 18.4045 2.45399 18.3287C2.45237 18.3173 2.45498 18.3056 2.46132 18.296C2.56666 18.1793 2.67332 18.064 2.77999 17.948L2.79266 17.9413C2.88406 18.0877 2.99041 18.2242 3.10999 18.3487C3.23273 18.4654 3.36723 18.569 3.51132 18.658Z" fill="#F26922"/>
<path d="M2.55667 18.01C2.57867 17.9787 2.594 17.9553 2.61 17.932C2.626 17.9087 2.642 17.8847 2.66067 17.8653C2.72334 17.788 2.784 17.7087 2.852 17.6347C3.12467 17.3393 3.416 17.064 3.708 16.7887L3.724 16.7767L3.72867 16.782C3.662 16.8667 3.59534 16.95 3.52867 17.0353C3.24741 17.4002 2.92078 17.7277 2.55667 18.01Z" fill="#F26922"/>
<path d="M4.21135 16.3333C4.19468 16.3187 4.19268 16.304 4.20468 16.294C4.23438 16.2777 4.26788 16.2696 4.30174 16.2705C4.3356 16.2715 4.3686 16.2814 4.39735 16.2993C4.41335 16.3167 4.40735 16.3313 4.38935 16.3433C4.36093 16.3555 4.33006 16.361 4.29917 16.3593C4.26829 16.3575 4.23823 16.3486 4.21135 16.3333Z" fill="#F26922"/>
<path d="M4.67533 17.7273L4.68466 17.7367C4.62133 17.8033 4.55666 17.8613 4.496 17.926C4.244 18.1927 3.98533 18.454 3.71266 18.6987C3.62936 18.7674 3.54234 18.8315 3.452 18.8907C3.80019 18.4447 4.21243 18.0527 4.67533 17.7273Z" fill="#F26922"/>
<path d="M4.69866 17.1753C4.75972 17.2949 4.7843 17.4299 4.76933 17.5633C4.76801 17.5782 4.76138 17.5922 4.75066 17.6027C4.62133 17.7 4.49066 17.7953 4.35933 17.8927C4.17342 17.5559 3.89608 17.2786 3.55933 17.0927L3.66933 16.942C3.72333 16.868 3.77866 16.7947 3.83133 16.72C3.83856 16.7085 3.84834 16.6989 3.8599 16.6919C3.87147 16.6848 3.8845 16.6805 3.89799 16.6793C4.00721 16.6712 4.11687 16.6878 4.21871 16.7281C4.32055 16.7684 4.41194 16.8313 4.48599 16.912C4.57061 16.9877 4.64242 17.0767 4.69866 17.1753Z" fill="#F26922"/>
<path d="M5.15666 17.0613C5.17098 17.0882 5.17919 17.1179 5.18069 17.1484C5.18219 17.1788 5.17694 17.2092 5.16532 17.2373C5.15266 17.2573 5.13665 17.2613 5.12265 17.2473C5.10506 17.2201 5.09451 17.1889 5.09195 17.1565C5.08939 17.1242 5.0949 17.0917 5.10799 17.062C5.12332 17.0407 5.14066 17.04 5.15666 17.0613Z" fill="#F26922"/>
<path d="M13.952 11.6187C13.862 10.88 13.6853 10.1687 13.2967 9.52932C12.3247 7.92199 10.8047 7.19199 9.00934 7.05132C7.68134 6.94732 6.34268 7.00532 5.00401 7.00532C4.85485 7.00911 4.71161 7.06448 4.59868 7.16199C3.62934 8.07177 2.66712 8.98932 1.71201 9.91466C1.28001 10.33 1.28267 10.7913 1.71201 11.214C2.01868 11.514 2.33068 11.8073 2.64068 12.104C2.81801 12.274 2.86934 12.27 3.04068 12.0967C3.41268 11.73 3.78645 11.3649 4.16201 11.0013C4.39601 10.7747 4.60201 10.5293 4.68134 10.2053C4.70058 10.1213 4.71351 10.0359 4.72001 9.94999L4.72734 9.94466L4.73867 9.79999C4.72134 9.77199 4.70468 9.74466 4.68601 9.71532C4.65468 9.74799 4.62468 9.77666 4.59534 9.80666C4.45401 9.95332 4.31201 10.0993 4.17134 10.2467C4.16022 10.2587 4.15241 10.2734 4.14868 10.2893C4.1463 10.3042 4.14006 10.3182 4.13058 10.3299C4.12111 10.3416 4.10873 10.3506 4.09468 10.356C3.98134 10.4013 3.91068 10.5 3.81801 10.5727C3.81311 10.5776 3.80925 10.5835 3.80668 10.59C3.69914 10.7836 3.54316 10.946 3.35401 11.0613C3.17401 11.1753 2.99934 11.1407 2.83201 11.0287C2.78125 10.9973 2.73801 10.9552 2.70534 10.9053C2.6872 10.8848 2.66634 10.8669 2.64334 10.852C2.63811 10.849 2.63339 10.8451 2.62934 10.8407C2.53468 10.7273 2.40801 10.6407 2.33468 10.5073C2.28608 10.4272 2.26358 10.3339 2.27026 10.2404C2.27695 10.1469 2.3125 10.0578 2.37201 9.98532C2.46703 9.84568 2.58925 9.72664 2.73134 9.63532C2.84534 9.56866 2.91801 9.46532 3.00468 9.37466C3.0212 9.35261 3.03362 9.32777 3.04134 9.30132C3.04722 9.2862 3.05719 9.27301 3.07015 9.26323C3.0831 9.25346 3.09852 9.24749 3.11468 9.24599C3.1263 9.24394 3.13701 9.23835 3.14534 9.22999C3.32045 9.06199 3.49534 8.8931 3.67001 8.72332C3.67441 8.71901 3.67842 8.71433 3.68201 8.70932L3.55601 8.63066C3.57291 8.61738 3.59277 8.60838 3.61389 8.60444C3.63502 8.60049 3.65679 8.60171 3.67734 8.60799C3.68758 8.61184 3.69879 8.61223 3.70926 8.6091C3.71974 8.60597 3.7289 8.59949 3.73534 8.59065C3.84334 8.47999 3.95401 8.37332 4.06001 8.26266C4.13358 8.19329 4.22623 8.14752 4.32602 8.13125C4.42582 8.11497 4.52821 8.12893 4.62001 8.17132C4.79597 8.26366 4.94887 8.39445 5.06734 8.55399C5.124 8.62742 5.17546 8.70472 5.22134 8.78532C5.26306 8.86255 5.28161 8.95018 5.27475 9.03769C5.26789 9.1252 5.23592 9.20887 5.18268 9.27866L5.29801 9.27132H5.36468C6.01334 9.27132 6.66401 9.24466 7.31134 9.27599C7.8132 9.29346 8.3123 9.35819 8.80201 9.46932C9.74734 9.69799 10.4867 10.222 10.884 11.146C11.1427 11.746 11.1713 12.372 11.0967 13.0127C10.9427 14.3407 10.1633 15.2793 8.86801 15.608C8.44076 15.7094 8.00375 15.7642 7.56468 15.7713C6.74668 15.796 5.92668 15.7887 5.10868 15.7713C4.79068 15.7647 4.75668 15.7047 4.70868 15.3867C4.69618 15.3278 4.68038 15.2697 4.66134 15.2127C4.61001 15.2567 4.57134 15.2873 4.53734 15.3207C3.57245 16.2642 2.6089 17.208 1.64668 18.152C1.22468 18.5667 1.24668 19.056 1.70334 19.4393C2.02601 19.7113 2.35801 19.9727 2.68468 20.2393C2.79334 20.3287 2.89468 20.3407 3.00068 20.234C3.53401 19.6973 4.06734 19.1673 4.60068 18.6247C4.6609 18.5614 4.69801 18.4796 4.70601 18.3927C4.72334 18.0827 4.75934 18.0373 5.07068 18.0373C6.16068 18.0373 7.25134 18.0333 8.34134 18.0407C9.03422 18.045 9.72348 17.9406 10.384 17.7313C12.0887 17.198 13.2693 16.126 13.77 14.378C14.0313 13.4773 14.0667 12.5547 13.952 11.6187ZM5.07801 17.4467C4.96601 17.5607 4.85134 17.672 4.73801 17.784C4.72951 17.7902 4.72324 17.7991 4.72012 17.8091C4.717 17.8192 4.7172 17.83 4.72068 17.84C4.72751 17.8609 4.72908 17.8831 4.72524 17.9048C4.7214 17.9264 4.71228 17.9467 4.69868 17.964L4.62068 17.836C4.58801 17.868 4.55868 17.8973 4.53001 17.9273C4.38823 18.0735 4.24667 18.2202 4.10534 18.3673C4.09461 18.3794 4.08685 18.3937 4.08268 18.4093C4.08049 18.4242 4.0744 18.4382 4.06503 18.4499C4.05566 18.4616 4.04334 18.4706 4.02934 18.476C3.91601 18.5213 3.84534 18.62 3.75268 18.692C3.74758 18.6969 3.7435 18.7028 3.74068 18.7093C3.63331 18.9031 3.47729 19.0656 3.28801 19.1807C3.10801 19.2953 2.93334 19.26 2.76601 19.1487C2.71534 19.117 2.67194 19.075 2.63868 19.0253C2.62108 19.0045 2.60039 18.9865 2.57734 18.972C2.57239 18.9686 2.56771 18.9648 2.56334 18.9607C2.46868 18.8473 2.34201 18.7607 2.26868 18.6273C2.22008 18.5471 2.19763 18.4538 2.20444 18.3603C2.21124 18.2667 2.24698 18.1776 2.30668 18.1053C2.40129 17.9658 2.52332 17.8469 2.66534 17.756C2.77934 17.6893 2.85201 17.586 2.93934 17.4947C2.95535 17.4725 2.96773 17.448 2.97601 17.422C2.98177 17.4069 2.99162 17.3937 3.00446 17.384C3.0173 17.3742 3.03261 17.3682 3.04868 17.3667C3.06021 17.3643 3.07084 17.3588 3.07934 17.3507L3.60401 16.844C3.60841 16.8397 3.61242 16.835 3.61601 16.83C3.57468 16.804 3.53401 16.7793 3.49068 16.7513C3.5075 16.7382 3.52725 16.7292 3.54825 16.7253C3.56924 16.7213 3.59088 16.7225 3.61134 16.7287C3.62176 16.7324 3.63309 16.7326 3.64366 16.7294C3.65423 16.7261 3.66347 16.7196 3.67001 16.7107C3.77734 16.6007 3.88801 16.494 3.99401 16.3827C4.06785 16.3135 4.16064 16.2679 4.26051 16.2518C4.36038 16.2356 4.4628 16.2496 4.55468 16.292C4.73045 16.3838 4.88299 16.5144 5.00068 16.674C5.05725 16.7476 5.10891 16.8249 5.15534 16.9053C5.20259 16.9918 5.2206 17.0913 5.20666 17.1888C5.19272 17.2864 5.14759 17.3769 5.07801 17.4467Z" fill="#F26922"/>
<path d="M2.34201 14.3693C2.32734 14.3907 2.30934 14.3907 2.29401 14.3693C2.27932 14.3428 2.27085 14.3133 2.26924 14.2831C2.26762 14.2528 2.2729 14.2226 2.28468 14.1947C2.29801 14.174 2.31334 14.1707 2.32734 14.1847C2.34494 14.2118 2.35549 14.2429 2.35805 14.2751C2.36061 14.3074 2.3551 14.3397 2.34201 14.3693Z" fill="#F26922"/>
<path d="M3.246 15.1333C3.21626 15.1495 3.18278 15.1575 3.14895 15.1566C3.11511 15.1557 3.08212 15.1458 3.05333 15.128C3.03666 15.11 3.04333 15.0953 3.06133 15.0833C3.08982 15.0714 3.12065 15.0661 3.15148 15.0679C3.18231 15.0696 3.21235 15.0783 3.23933 15.0933C3.256 15.1107 3.258 15.126 3.246 15.1333Z" fill="#F26922"/>
<path d="M4 12.5406C3.65733 12.9973 3.234 13.3687 2.776 13.7047L2.76733 13.6947C2.83067 13.632 2.89533 13.5706 2.956 13.5053C3.20733 13.2386 3.46667 12.978 3.73933 12.7333C3.82251 12.6642 3.90954 12.5999 4 12.5406Z" fill="#F26922"/>
<path d="M3.88933 14.338L3.78 14.488C3.726 14.562 3.67066 14.6353 3.618 14.7107C3.61036 14.7224 3.60002 14.7322 3.58785 14.7392C3.57567 14.7461 3.56201 14.7501 3.548 14.7507C3.43885 14.7587 3.32928 14.7421 3.22747 14.7019C3.12567 14.6617 3.03423 14.5991 2.96 14.5187C2.87696 14.4429 2.80672 14.3542 2.752 14.256C2.69063 14.1365 2.66604 14.0015 2.68133 13.868C2.68241 13.8532 2.6888 13.8392 2.69933 13.8287C2.82933 13.732 2.96 13.636 3.09133 13.5393C3.27701 13.8752 3.55358 14.152 3.88933 14.338Z" fill="#F26922"/>
<path d="M4.506 12.316C4.47933 12.32 4.45213 12.3184 4.42609 12.3114C4.40005 12.3044 4.37573 12.2921 4.35466 12.2753C4.326 12.2453 4.332 12.222 4.36466 12.2167C4.3924 12.2119 4.42086 12.2135 4.44789 12.2213C4.47492 12.2292 4.49981 12.2431 4.52066 12.262C4.54666 12.284 4.53933 12.31 4.506 12.316Z" fill="#F26922"/>
<path d="M4.67866 13.6V13.7087C4.65266 13.74 4.62666 13.7707 4.59933 13.8C4.32733 14.0947 4.03599 14.3713 3.74333 14.6467L3.72799 14.658C3.7261 14.6566 3.72451 14.6547 3.72333 14.6527C3.78999 14.5687 3.85666 14.4853 3.92333 14.3993C4.14634 14.1071 4.39951 13.8392 4.67866 13.6Z" fill="#F26922"/>
<path d="M4.69067 12.63L4.68 13.476L4.67 13.486C4.66644 13.4891 4.66239 13.4916 4.658 13.4933C4.56636 13.3469 4.4598 13.2104 4.34 13.086C4.21785 12.9684 4.08379 12.8639 3.94 12.774C3.99534 12.7187 4.04667 12.6647 4.10067 12.6133C4.15467 12.562 4.22134 12.502 4.28334 12.4473C4.29548 12.4374 4.31104 12.4326 4.32667 12.434C4.42879 12.4478 4.52481 12.4906 4.60333 12.5573C4.63333 12.5807 4.66267 12.6053 4.69067 12.63Z" fill="#F26922"/>
<path d="M4.69665 11.7227L4.70132 11.718L4.69465 12.2893L4.68465 12.2827C4.51665 12.1713 4.34199 12.1367 4.16265 12.2507C3.97335 12.3657 3.81733 12.5282 3.70999 12.722C3.7067 12.7282 3.70267 12.7341 3.69799 12.7393C3.60532 12.8113 3.53399 12.9107 3.42065 12.9553C3.40687 12.9611 3.39476 12.9702 3.38544 12.9818C3.37611 12.9935 3.36988 13.0073 3.36732 13.022C3.3637 13.0376 3.35612 13.0521 3.34532 13.064C3.20399 13.2116 3.06243 13.3584 2.92065 13.5047C2.89199 13.5347 2.86199 13.5633 2.82932 13.5953L2.75199 13.4667C2.73838 13.4838 2.7292 13.504 2.72525 13.5255C2.7213 13.547 2.72269 13.5692 2.72932 13.59C2.73309 13.5999 2.7335 13.6107 2.73049 13.6208C2.72748 13.6309 2.72121 13.6398 2.71265 13.646C2.59865 13.7573 2.48465 13.87 2.37265 13.984C2.30345 14.0533 2.25852 14.1432 2.24458 14.2401C2.23064 14.3371 2.24844 14.436 2.29532 14.522C2.34151 14.6026 2.39296 14.6801 2.44932 14.754C2.56763 14.9131 2.72031 15.0434 2.89599 15.1353C2.98778 15.1779 3.09018 15.192 3.19007 15.176C3.28996 15.1599 3.38278 15.1145 3.45665 15.0453C3.56265 14.9333 3.67332 14.8267 3.77999 14.7167C3.78683 14.7079 3.7962 14.7015 3.80681 14.6983C3.81743 14.6951 3.82878 14.6952 3.83932 14.6987C3.85982 14.705 3.88156 14.7064 3.90268 14.7025C3.92381 14.6987 3.94369 14.6898 3.96065 14.6767L3.83399 14.5973L3.84599 14.5833L4.37132 14.0767C4.37952 14.0682 4.39033 14.0628 4.40199 14.0613C4.41798 14.0596 4.43319 14.0535 4.44599 14.0437C4.45879 14.034 4.4687 14.0209 4.47465 14.006C4.48279 13.9797 4.49518 13.9549 4.51132 13.9327C4.56732 13.874 4.61732 13.8107 4.67665 13.7553L4.67199 14.14C4.67799 14.3487 4.68732 14.54 4.49265 14.72C3.98065 15.1947 3.49999 15.704 3.00665 16.1993C2.82865 16.3773 2.82132 16.3787 2.64665 16.2093C2.32065 15.894 1.99265 15.5813 1.67265 15.2607C1.26265 14.8487 1.26799 14.4087 1.68065 14.01C2.65399 13.0691 3.62821 12.1291 4.60332 11.19C4.62932 11.1653 4.65799 11.144 4.72599 11.086C4.71532 11.3147 4.70599 11.522 4.69665 11.7227Z" fill="#F26922"/>
<path d="M2.352 22.3767C2.36916 22.4041 2.3794 22.4353 2.38184 22.4676C2.38428 22.4999 2.37884 22.5323 2.366 22.562C2.35134 22.5833 2.33334 22.5833 2.318 22.562C2.30321 22.5354 2.29469 22.5058 2.29307 22.4754C2.29145 22.445 2.29679 22.4147 2.30867 22.3867C2.322 22.3667 2.33734 22.3627 2.352 22.3767Z" fill="#F26922"/>
<path d="M3.26268 23.2887C3.28001 23.3033 3.28201 23.318 3.27001 23.328C3.24032 23.3443 3.20682 23.3524 3.17296 23.3515C3.13909 23.3505 3.10609 23.3406 3.07735 23.3227C3.06068 23.3053 3.06735 23.2907 3.08535 23.2787C3.11368 23.2665 3.14442 23.2612 3.17519 23.2629C3.20595 23.2646 3.23589 23.2734 3.26268 23.2887Z" fill="#F26922"/>
<path d="M2.79999 21.8967L2.79132 21.8867C2.85799 21.824 2.91932 21.7627 2.97999 21.698C3.23132 21.4313 3.48999 21.17 3.76332 20.9253C3.84666 20.8564 3.93368 20.7921 4.02399 20.7327C3.67592 21.1792 3.26341 21.5715 2.79999 21.8967Z" fill="#F26922"/>
<path d="M2.98399 22.7107C2.90096 22.6351 2.83072 22.5466 2.77599 22.4487C2.71474 22.3291 2.69015 22.1941 2.70532 22.0607C2.70628 22.0458 2.71269 22.0318 2.72332 22.0213C2.85666 21.924 2.98332 21.8287 3.11532 21.7313C3.30117 22.0681 3.57852 22.3455 3.91532 22.5313L3.80599 22.682C3.75199 22.756 3.69665 22.8293 3.64399 22.904C3.63637 22.9159 3.62595 22.9258 3.61363 22.9328C3.60131 22.9398 3.58747 22.9436 3.57332 22.944C3.46382 22.9524 3.35383 22.9358 3.25171 22.8954C3.14959 22.855 3.05803 22.7918 2.98399 22.7107Z" fill="#F26922"/>
<path d="M4.37865 20.4667C4.34998 20.4367 4.35532 20.4133 4.38865 20.408C4.41639 20.4032 4.44485 20.4048 4.47188 20.4127C4.49891 20.4205 4.5238 20.4344 4.54465 20.4533C4.57065 20.4753 4.56332 20.5013 4.53065 20.5073C4.50388 20.5112 4.47661 20.5096 4.45048 20.5026C4.42436 20.4956 4.39992 20.4834 4.37865 20.4667Z" fill="#F26922"/>
<path d="M4.62667 20.7494C4.64401 20.7627 4.66001 20.7754 4.67601 20.7894L4.68467 21.684C4.59286 21.5379 4.48631 21.4017 4.36667 21.2773C4.24454 21.1595 4.11048 21.0548 3.96667 20.9647C4.02134 20.9093 4.07334 20.8554 4.12734 20.8047C4.18134 20.754 4.24801 20.6927 4.30934 20.638C4.32196 20.6285 4.33756 20.6238 4.35334 20.6247C4.45435 20.6398 4.54907 20.683 4.62667 20.7494Z" fill="#F26922"/>
<path d="M4.68601 21.806V21.9173C4.66468 21.942 4.64335 21.9673 4.61935 21.9913C4.34668 22.2867 4.05601 22.5627 3.76335 22.838L3.74801 22.8493C3.74614 22.8481 3.74455 22.8465 3.74335 22.8447C3.81001 22.76 3.87668 22.6767 3.94335 22.5913C4.16327 22.3047 4.41214 22.0416 4.68601 21.806Z" fill="#F26922"/>
<path d="M4.69 22.2533L4.68334 22.2613C4.69134 22.61 4.56134 22.9073 4.27534 23.1673C3.87134 23.5333 3.494 23.9333 3.10667 24.3213C2.91134 24.516 2.872 24.5173 2.68 24.3213C2.37334 24.0127 2.06467 23.7067 1.76067 23.3967C1.312 22.9393 1.31267 22.5 1.77267 22.0533C2.72534 21.1273 3.68334 20.2067 4.66334 19.26V19.7853L4.66667 19.7813L4.67267 20.448C4.516 20.354 4.354 20.3313 4.186 20.438C3.99661 20.5528 3.84073 20.7153 3.734 20.9093C3.73071 20.9154 3.72668 20.921 3.722 20.926C3.62934 20.9987 3.558 21.0973 3.44467 21.1427C3.43075 21.1482 3.4185 21.1572 3.40915 21.1689C3.39979 21.1806 3.39365 21.1945 3.39134 21.2093C3.38755 21.2251 3.38 21.2398 3.36934 21.252C3.228 21.3993 3.08667 21.5453 2.94467 21.692C2.916 21.722 2.886 21.7507 2.85334 21.7833C2.82734 21.74 2.80267 21.6993 2.77534 21.6553C2.76185 21.6725 2.75279 21.6928 2.74895 21.7143C2.74511 21.7358 2.74662 21.7579 2.75334 21.7787C2.75699 21.7886 2.75735 21.7994 2.75434 21.8095C2.75134 21.8196 2.74514 21.8284 2.73667 21.8347C2.622 21.9473 2.50867 22.0587 2.39667 22.1727C2.32746 22.242 2.28254 22.3319 2.2686 22.4288C2.25466 22.5258 2.27246 22.6247 2.31934 22.7107C2.36537 22.7914 2.41682 22.8689 2.47334 22.9427C2.59163 23.102 2.7443 23.2325 2.92 23.3247C3.01188 23.367 3.1143 23.381 3.21417 23.3649C3.31404 23.3487 3.40683 23.3032 3.48067 23.234C3.586 23.122 3.69734 23.016 3.804 22.9053C3.81074 22.8965 3.82013 22.89 3.83081 22.8869C3.84149 22.8838 3.85289 22.8842 3.86334 22.888C3.88379 22.8942 3.90543 22.8953 3.92643 22.8914C3.94743 22.8874 3.96718 22.8785 3.984 22.8653L3.858 22.7867C3.86159 22.7817 3.86561 22.777 3.87 22.7727C4.04534 22.6033 4.21934 22.4347 4.39534 22.266C4.40332 22.2575 4.41386 22.2519 4.42534 22.25C4.44149 22.2485 4.45691 22.2425 4.46987 22.2328C4.48282 22.223 4.49279 22.2098 4.49867 22.1947C4.50653 22.1683 4.51894 22.1435 4.53534 22.1213C4.58667 22.0673 4.634 22.0093 4.68734 21.9567L4.69 22.2533Z" fill="#F26922"/>
</g>
<defs>
<clipPath id="clip0_1_3">
<rect width="46" height="32" fill="white"/>
</clipPath>
</defs>
</svg>
